# xmcd
#
# Track frame offsets:
#	150
#	17404
#	33204
#	45822
#	58469
#	79590
#	107952
#	124498
#	148560
#	166560
#	187074
#
# Disc length: 2962 seconds
# Revision: 2
# Processed by: cddbd v1.5.2PL0 Copyright (c) Steve Scherf et al.
# Submitted via: dBpowerAMP V12.0
#
DISCID=8a0b900b
DTITLE=HowellDevine - Modern Sounds of Ancient Juju
DYEAR=2014
DGENRE=Blues
TTITLE0=Can't Be Satisfied
TTITLE1=It Won't Be Long Now
TTITLE2=She Brought Life Back To The Dead
TTITLE3=Let You Go
TTITLE4=Sweet To Mama
TTITLE5=Woogie Man
TTITLE6=House In The Field
TTITLE7=Shake 'Em On Down
TTITLE8=It's Too Late Brother
TTITLE9=Rollin' In Her Arms
TTITLE10=Railroad Stomp
EXTD=
EXTT0=
EXTT1=
EXTT2=
EXTT3=
EXTT4=
EXTT5=
EXTT6=
EXTT7=
EXTT8=
EXTT9=
EXTT10=
PLAYORDER=
